<svg
        xmlns="http://www.w3.org/2000/svg"
        width="40"
        height="50"
        viewBox="0 0 24 24"
      >
        <path
          fill="#FFC107"
          d="M12,2C6.47,2 2,6.47 2,12C2,17.53 6.47,22 12,22C17.53,22 22,17.53 22,12C22,6.47 17.53,2 12,2M9.77,16.69L7.43,15.1L6.56,16.53C6.39,16.82 6.11,17 5.79,17H4.56C4.04,17 3.62,16.5 3.82,15.99L5.35,13.33L3.82,10.67C3.62,10.16 4.04,9.66 4.56,9.66H5.79C6.11,9.66 6.39,9.84 6.56,10.13L7.43,11.56L9.77,10C10.41,9.65 11.19,9.84 11.53,10.47L13.29,13.41L15.05,10.47C15.39,9.84 16.17,9.65 16.81,10L19.15,11.56L20.02,10.13C20.2,9.84 20.48,9.66 20.8,9.66H22.03C22.55,9.66 22.98,10.16 22.78,10.67L21.25,13.33L22.78,15.99C22.98,16.5 22.55,17 22.03,17H20.8C20.48,17 20.2,16.82 20.02,16.53L19.15,15.1L16.81,16.69C16.17,17.04 15.39,16.84 15.05,16.22L13.29,13.28L11.53,16.22C11.19,16.84 10.41,17.04 9.77,16.69Z"
        />
        <text
          fill="#FFC107"
          x="50%"
          y="50%"
          dominantBaseline="middle"
          textAnchor="middle"
          fontFamily="Verdana"
          fontSize="16"
        >
          AWS
        </text>
      </svg>